<mxfile host="app.diagrams.net" modified="2023-04-01T21:29:16.504Z" agent="Mozilla/5.0 (Windows NT 10.0; Win64; x64; rv:109.0) Gecko/20100101 Firefox/111.0" etag="QVwHArxRKqeXp5KBOfjv" version="21.1.2" type="github">
  <diagram id="C5RBs43oDa-KdzZeNtuy" name="Page-1">
    <mxGraphModel dx="1372" dy="794" grid="1" gridSize="10" guides="1" tooltips="1" connect="1" arrows="1" fold="1" page="1" pageScale="1" pageWidth="827" pageHeight="1169" math="0" shadow="0">
      <root>
        <mxCell id="WIyWlLk6GJQsqaUBKTNV-0" />
        <mxCell id="WIyWlLk6GJQsqaUBKTNV-1" parent="WIyWlLk6GJQsqaUBKTNV-0" />
        <mxCell id="xLBkXgFRcOoAtG9UWpsu-11" value="&lt;div style=&quot;font-size: 20px;&quot;&gt;Parent&lt;/div&gt;" style="rounded=0;orthogonalLoop=1;jettySize=auto;html=1;exitX=0.5;exitY=0;exitDx=0;exitDy=0;strokeColor=default;endArrow=none;endFill=0;fontSize=20;fontColor=#666666;fontStyle=0" edge="1" parent="WIyWlLk6GJQsqaUBKTNV-1" source="xLBkXgFRcOoAtG9UWpsu-0">
          <mxGeometry x="1" y="10" relative="1" as="geometry">
            <mxPoint x="420" y="40" as="targetPoint" />
            <mxPoint x="10" y="-10" as="offset" />
          </mxGeometry>
        </mxCell>
        <mxCell id="xLBkXgFRcOoAtG9UWpsu-12" value="&lt;font style=&quot;font-size: 22px;&quot; color=&quot;#666666&quot;&gt;Right&lt;/font&gt;" style="edgeStyle=orthogonalEdgeStyle;rounded=0;orthogonalLoop=1;jettySize=auto;html=1;exitX=1;exitY=0.5;exitDx=0;exitDy=0;endArrow=classicThin;endFill=1;strokeWidth=2;strokeColor=#787878;curved=1;" edge="1" parent="WIyWlLk6GJQsqaUBKTNV-1" source="xLBkXgFRcOoAtG9UWpsu-0">
          <mxGeometry x="1" y="40" relative="1" as="geometry">
            <mxPoint x="640" y="320" as="targetPoint" />
            <mxPoint x="40" y="40" as="offset" />
          </mxGeometry>
        </mxCell>
        <mxCell id="xLBkXgFRcOoAtG9UWpsu-0" value="NODE" style="swimlane;whiteSpace=wrap;html=1;startSize=40;fillColor=#e1d5e7;strokeColor=default;direction=east;rounded=0;shadow=0;glass=0;swimlaneLine=0;" vertex="1" parent="WIyWlLk6GJQsqaUBKTNV-1">
          <mxGeometry x="320" y="120" width="199" height="200" as="geometry" />
        </mxCell>
        <mxCell id="xLBkXgFRcOoAtG9UWpsu-6" value="KEY" style="text;html=1;align=center;verticalAlign=middle;resizable=0;points=[];autosize=1;strokeColor=none;fillColor=none;fontSize=24;horizontal=1;fontStyle=1;fontColor=#666666;labelBackgroundColor=none;" vertex="1" parent="xLBkXgFRcOoAtG9UWpsu-0">
          <mxGeometry x="64.5" y="60" width="70" height="40" as="geometry" />
        </mxCell>
        <mxCell id="xLBkXgFRcOoAtG9UWpsu-8" value="DATA" style="text;html=1;align=center;verticalAlign=middle;resizable=0;points=[];autosize=1;strokeColor=none;fillColor=none;fontSize=24;horizontal=1;fontStyle=1;fontColor=#666666;labelBackgroundColor=none;" vertex="1" parent="xLBkXgFRcOoAtG9UWpsu-0">
          <mxGeometry x="54.5" y="140" width="90" height="40" as="geometry" />
        </mxCell>
        <mxCell id="xLBkXgFRcOoAtG9UWpsu-13" value="&lt;font style=&quot;font-size: 22px;&quot; color=&quot;#666666&quot;&gt;Left&lt;/font&gt;" style="edgeStyle=orthogonalEdgeStyle;rounded=0;orthogonalLoop=1;jettySize=auto;html=1;exitX=1;exitY=0.5;exitDx=0;exitDy=0;endArrow=classicThin;endFill=1;strokeWidth=2;strokeColor=#787878;curved=1;" edge="1" parent="xLBkXgFRcOoAtG9UWpsu-0">
          <mxGeometry x="1" y="40" relative="1" as="geometry">
            <mxPoint x="-120" y="200" as="targetPoint" />
            <mxPoint y="100" as="sourcePoint" />
            <mxPoint x="-40" y="-40" as="offset" />
            <Array as="points">
              <mxPoint x="-50" y="100" />
              <mxPoint x="-50" y="200" />
            </Array>
          </mxGeometry>
        </mxCell>
        <mxCell id="xLBkXgFRcOoAtG9UWpsu-5" value="" style="endArrow=none;html=1;rounded=0;strokeWidth=3;strokeColor=#3700CC;dashed=1;fillColor=#6a00ff;" edge="1" parent="WIyWlLk6GJQsqaUBKTNV-1">
          <mxGeometry width="50" height="50" relative="1" as="geometry">
            <mxPoint x="320" y="240" as="sourcePoint" />
            <mxPoint x="520" y="240" as="targetPoint" />
          </mxGeometry>
        </mxCell>
        <mxCell id="xLBkXgFRcOoAtG9UWpsu-24" value="&lt;font style=&quot;font-size: 22px;&quot; color=&quot;#666666&quot;&gt;Right&lt;/font&gt;" style="edgeStyle=orthogonalEdgeStyle;rounded=0;orthogonalLoop=1;jettySize=auto;html=1;exitX=1;exitY=0.5;exitDx=0;exitDy=0;endArrow=classicThin;endFill=1;strokeWidth=2;strokeColor=#787878;curved=1;" edge="1" source="xLBkXgFRcOoAtG9UWpsu-25" parent="WIyWlLk6GJQsqaUBKTNV-1">
          <mxGeometry x="1" y="40" relative="1" as="geometry">
            <mxPoint x="900" y="640" as="targetPoint" />
            <mxPoint x="40" y="40" as="offset" />
          </mxGeometry>
        </mxCell>
        <mxCell id="xLBkXgFRcOoAtG9UWpsu-25" value="NODE" style="swimlane;whiteSpace=wrap;html=1;startSize=40;fillColor=#e1d5e7;strokeColor=default;direction=east;rounded=0;shadow=0;glass=0;swimlaneLine=0;" vertex="1" parent="WIyWlLk6GJQsqaUBKTNV-1">
          <mxGeometry x="580" y="440" width="199" height="200" as="geometry" />
        </mxCell>
        <mxCell id="xLBkXgFRcOoAtG9UWpsu-26" value="KEY" style="text;html=1;align=center;verticalAlign=middle;resizable=0;points=[];autosize=1;strokeColor=none;fillColor=none;fontSize=24;horizontal=1;fontStyle=1;fontColor=#666666;labelBackgroundColor=none;" vertex="1" parent="xLBkXgFRcOoAtG9UWpsu-25">
          <mxGeometry x="64.5" y="60" width="70" height="40" as="geometry" />
        </mxCell>
        <mxCell id="xLBkXgFRcOoAtG9UWpsu-27" value="DATA" style="text;html=1;align=center;verticalAlign=middle;resizable=0;points=[];autosize=1;strokeColor=none;fillColor=none;fontSize=24;horizontal=1;fontStyle=1;fontColor=#666666;labelBackgroundColor=none;" vertex="1" parent="xLBkXgFRcOoAtG9UWpsu-25">
          <mxGeometry x="54.5" y="140" width="90" height="40" as="geometry" />
        </mxCell>
        <mxCell id="xLBkXgFRcOoAtG9UWpsu-28" value="&lt;font style=&quot;font-size: 22px;&quot; color=&quot;#666666&quot;&gt;Left&lt;/font&gt;" style="edgeStyle=orthogonalEdgeStyle;rounded=0;orthogonalLoop=1;jettySize=auto;html=1;exitX=1;exitY=0.5;exitDx=0;exitDy=0;endArrow=classicThin;endFill=1;strokeWidth=2;strokeColor=#787878;curved=1;" edge="1" parent="xLBkXgFRcOoAtG9UWpsu-25">
          <mxGeometry x="1" y="40" relative="1" as="geometry">
            <mxPoint x="-120" y="200" as="targetPoint" />
            <mxPoint y="100" as="sourcePoint" />
            <mxPoint x="-40" y="-40" as="offset" />
            <Array as="points">
              <mxPoint x="-50" y="100" />
              <mxPoint x="-50" y="200" />
            </Array>
          </mxGeometry>
        </mxCell>
        <mxCell id="xLBkXgFRcOoAtG9UWpsu-29" value="" style="endArrow=none;html=1;rounded=0;strokeWidth=3;strokeColor=#3700CC;dashed=1;fillColor=#6a00ff;" edge="1" parent="WIyWlLk6GJQsqaUBKTNV-1">
          <mxGeometry width="50" height="50" relative="1" as="geometry">
            <mxPoint x="580" y="560" as="sourcePoint" />
            <mxPoint x="780" y="560" as="targetPoint" />
          </mxGeometry>
        </mxCell>
        <mxCell id="xLBkXgFRcOoAtG9UWpsu-33" value="" style="edgeStyle=none;orthogonalLoop=1;jettySize=auto;html=1;rounded=0;entryX=0.5;entryY=0;entryDx=0;entryDy=0;" edge="1" parent="WIyWlLk6GJQsqaUBKTNV-1" target="xLBkXgFRcOoAtG9UWpsu-25">
          <mxGeometry width="100" relative="1" as="geometry">
            <mxPoint x="680" y="340" as="sourcePoint" />
            <mxPoint x="740" y="360" as="targetPoint" />
            <Array as="points" />
          </mxGeometry>
        </mxCell>
      </root>
    </mxGraphModel>
  </diagram>
</mxfile>
